<svg width="50" height="42" viewBox="0 0 50 42" fill="none" xmlns="http://www.w3.org/2000/svg">
<path d="M4.6875 11.7777C4.6875 26.2326 18.6786 37.9506 35.9375 37.9506H40.625C43.2138 37.9506 45.3125 36.1929 45.3125 34.0247V31.6314C45.3125 30.7307 44.5806 29.9455 43.5372 29.727L34.3222 27.7976C33.4074 27.606 32.4446 27.8923 31.8788 28.5241L29.8575 30.7813C29.2709 31.4364 28.2563 31.7261 27.3382 31.4445C20.4487 29.3307 14.9795 24.7501 12.4558 18.9799C12.1195 18.211 12.4653 17.3612 13.2475 16.8699L15.9425 15.177C16.6969 14.7031 17.0388 13.8967 16.8101 13.1305L14.5063 5.41266C14.2455 4.53881 13.308 3.92578 12.2326 3.92578H9.375C6.78617 3.92578 4.6875 5.68349 4.6875 7.85173V11.7777Z" stroke="#0A3A4E" stroke-width="1.5" stroke-linecap="round" stroke-linejoin="round"/>
</svg>
